<?xml version="1.0" standalone="no"?>
<!DOCTYPE svg PUBLIC "-//W3C//DTD SVG 20010904//EN"
 "http://www.w3.org/TR/2001/REC-SVG-20010904/DTD/svg10.dtd">
<svg version="1.0" xmlns="http://www.w3.org/2000/svg"
 width="200.000000pt" height="200.000000pt" viewBox="0 0 200.000000 200.000000"
 preserveAspectRatio="xMidYMid meet">
<metadata>
Created by potrace 1.14, written by Peter Selinger 2001-2017
</metadata>
<g transform="translate(0.000000,200.000000) scale(0.100000,-0.100000)"
fill="#000000" stroke="none">
<path d="M407 1542 c-9 -2 -17 -12 -17 -23 0 -19 14 -19 616 -19 l615 0 -3 22
-3 23 -596 0 c-327 0 -603 -1 -612 -3z"/>
<path d="M113 1473 c-10 -4 -13 -115 -13 -509 0 -497 0 -504 20 -504 20 0 20
7 20 504 0 278 -3 507 -7 509 -5 2 -14 2 -20 0z"/>
<path d="M1860 969 c0 -481 1 -510 18 -507 16 3 17 37 20 511 2 502 2 507 -18
507 -20 0 -20 -6 -20 -511z"/>
<path d="M671 1349 c-24 -5 -46 -11 -50 -14 -6 -6 108 -467 120 -487 5 -7 10
-10 12 -8 3 3 64 99 137 215 l132 209 -28 22 c-62 50 -222 81 -323 63z m239
-48 c82 -32 88 -37 69 -56 -13 -14 -18 -14 -45 -1 -50 26 -146 43 -216 40 -61
-3 -68 -1 -68 16 0 26 13 28 115 26 63 -2 106 -9 145 -25z m-36 -61 c36 -11
68 -25 71 -30 4 -6 -3 -25 -14 -43 -17 -29 -25 -33 -54 -29 -22 2 -38 -2 -46
-12 -18 -22 -17 -67 2 -81 13 -9 9 -21 -31 -83 -38 -60 -48 -70 -55 -56 -8 13
-4 22 13 36 40 33 21 98 -30 98 -12 0 -23 26 -42 102 -15 56 -24 106 -22 110
10 16 142 8 208 -12z m13 -136 c4 -15 -25 -47 -36 -39 -15 9 -14 42 2 48 16 7
30 3 34 -9z m-127 -119 c0 -13 -18 -31 -24 -24 -2 2 -6 17 -10 32 -6 26 -5 27
14 17 11 -6 20 -17 20 -25z"/>
<path d="M721 1234 c-12 -8 -21 -25 -21 -38 0 -53 57 -78 94 -40 46 46 -19
115 -73 78z m57 -26 c13 -13 -2 -48 -21 -48 -21 0 -35 20 -30 41 6 21 33 25
51 7z"/>
<path d="M1406 1339 c-72 -11 -74 -16 -47 -122 12 -50 27 -103 32 -117 5 -14
11 -38 14 -55 13 -73 52 -209 60 -212 13 -4 272 410 267 425 -9 29 -146 78
-232 85 -25 2 -67 0 -94 -4z m221 -49 c71 -25 91 -41 69 -59 -11 -10 -21 -9
-43 2 -66 33 -199 52 -255 36 -21 -6 -27 -3 -31 13 -4 13 1 22 16 29 35 15
176 3 244 -21z m-36 -61 c35 -11 68 -25 73 -29 5 -5 0 -23 -12 -42 -18 -28
-27 -33 -59 -33 -31 0 -40 -5 -51 -28 -11 -23 -11 -31 3 -55 17 -27 16 -29
-26 -96 -35 -56 -44 -65 -52 -51 -6 12 -3 22 12 36 37 35 18 99 -28 99 -15 0
-23 20 -44 102 -19 77 -23 104 -14 110 24 15 134 8 198 -13z m19 -138 c-1 -15
-30 -42 -39 -36 -15 9 -14 42 2 48 14 5 37 -2 37 -12z m-135 -108 c3 -9 1 -21
-5 -27 -12 -12 -17 -8 -25 27 -6 22 -4 26 8 21 9 -3 18 -13 22 -21z"/>
<path d="M1438 1216 c-22 -16 -23 -59 -2 -80 22 -23 60 -20 78 6 21 30 20 44
-4 68 -23 23 -47 25 -72 6z m62 -41 c0 -29 -25 -39 -45 -19 -19 20 -19 31 2
42 24 14 43 4 43 -23z"/>
<path d="M347 1102 c-48 -125 -87 -232 -87 -239 0 -20 106 -45 185 -45 104 0
215 34 215 66 0 8 -20 54 -43 102 -24 49 -68 141 -97 204 -55 118 -68 140 -79
140 -3 0 -45 -103 -94 -228z m110 133 c-41 -30 -17 -97 35 -97 23 0 31 -11 71
-97 l44 -96 -31 -14 c-54 -24 -238 -22 -263 2 -2 3 3 22 12 44 13 34 20 39 40
36 32 -7 68 30 59 60 -3 12 -14 29 -24 37 -17 14 -16 19 13 93 28 70 33 76 44
60 11 -15 11 -19 0 -28z m40 -71 c-9 -10 -37 9 -37 25 0 30 14 33 28 5 7 -14
12 -28 9 -30z m-100 -90 c7 -19 -18 -46 -33 -36 -7 4 -8 15 -3 30 10 26 27 29
36 6z m228 -179 c0 -52 -278 -73 -329 -25 -5 5 -6 15 -3 24 5 12 12 13 39 5
63 -19 218 -12 257 11 22 13 36 7 36 -15z"/>
<path d="M479 1036 c-35 -17 -38 -69 -6 -91 45 -29 99 12 82 63 -8 29 -47 43
-76 28z m49 -28 c15 -15 -3 -48 -27 -48 -23 0 -35 28 -20 46 14 17 31 18 47 2z"/>
<path d="M1133 1303 c-3 -10 -27 -74 -54 -143 -27 -69 -64 -165 -83 -215 l-35
-90 42 -19 c49 -22 192 -31 253 -15 52 13 114 40 114 49 0 4 -21 52 -46 106
-166 354 -176 371 -191 327z m33 -65 c-3 -7 -12 -21 -18 -31 -20 -27 9 -71 48
-75 27 -3 34 -11 73 -98 24 -52 42 -97 39 -99 -2 -2 -28 -10 -57 -18 -78 -20
-231 -11 -231 14 0 5 7 26 15 45 11 27 19 35 31 30 49 -19 87 66 44 97 l-21
14 22 54 c11 30 25 65 30 78 7 18 13 21 21 13 6 -6 8 -17 4 -24z m32 -53 c12
-25 4 -39 -14 -27 -14 9 -24 38 -17 46 11 11 20 6 31 -19z m-94 -138 c-7 -18
-44 -24 -44 -6 0 6 5 20 11 31 10 18 13 18 25 6 8 -8 12 -22 8 -31z m232 -148
c29 -47 -167 -80 -297 -49 -40 10 -46 15 -41 32 3 15 10 18 26 13 43 -14 183
-14 232 -1 64 18 72 18 80 5z"/>
<path d="M1182 1018 c-14 -18 -17 -39 -9 -65 9 -24 26 -33 53 -28 11 2 22 4
27 4 4 1 12 13 18 27 14 37 -11 74 -50 74 -16 0 -33 -6 -39 -12z m56 -17 c21
-13 10 -46 -16 -49 -27 -4 -40 22 -22 43 14 17 20 18 38 6z"/>
<path d="M1487 598 c-11 -58 -12 -87 -5 -95 12 -15 48 -17 48 -3 0 6 -7 10
-15 10 -18 0 -18 7 -1 98 11 58 11 72 1 72 -8 0 -18 -30 -28 -82z"/>
<path d="M526 662 c-3 -5 -1 -35 5 -66 6 -32 9 -62 7 -67 -2 -6 -41 19 -86 55
-80 62 -119 75 -108 37 2 -9 7 -38 11 -66 8 -66 14 -85 27 -85 6 0 7 16 3 43
-4 23 -9 54 -11 70 -2 15 -2 27 1 27 3 0 41 -27 83 -60 75 -58 113 -74 111
-47 -1 26 -26 158 -32 163 -3 3 -8 1 -11 -4z"/>
<path d="M945 578 c3 -112 3 -108 15 -108 6 0 10 13 10 30 l0 30 61 -1 c33 -1
65 3 70 8 6 6 9 37 7 69 l-3 59 -81 3 -81 3 2 -93z m143 20 l2 -48 -60 0 -60
0 0 50 0 51 58 -3 57 -3 3 -47z"/>
<path d="M702 653 c-28 -3 -42 -8 -39 -16 3 -7 8 -11 13 -10 5 1 34 4 66 6 49
5 57 3 61 -14 3 -10 2 -19 -1 -20 -137 -11 -144 -14 -133 -58 8 -30 36 -36
118 -26 l53 6 -6 52 c-11 91 -11 91 -132 80z m108 -94 c0 -10 -1 -19 -2 -20
-2 0 -25 -3 -52 -6 -35 -4 -51 -1 -57 8 -15 24 -10 28 34 31 23 2 50 4 60 5
11 1 17 -5 17 -18z"/>
<path d="M1226 651 c-10 -16 -17 -106 -9 -117 10 -15 124 -26 142 -15 14 9 28
73 23 107 -2 15 -13 24 -34 28 -45 9 -116 7 -122 -3z m125 -22 c8 -4 9 -22 5
-52 l-7 -45 -52 5 c-29 3 -55 8 -58 11 -3 4 -4 26 -1 50 l4 43 49 -2 c27 -2
54 -6 60 -10z"/>
<path d="M1665 650 c-3 -5 1 -10 10 -10 9 0 13 5 10 10 -3 6 -8 10 -10 10 -2
0 -7 -4 -10 -10z"/>
<path d="M1647 573 c-3 -21 -9 -53 -12 -70 -11 -47 12 -42 24 5 22 86 23 102
8 102 -9 0 -16 -14 -20 -37z"/>
</g>
</svg>
